{"title":"Liona Levi - Lovely Liona - HDLove","uid":11108982,"size":109995177,"categoryP":"porn","categoryS":"movie_clips","magnet":"?xt=urn:btih:b6d4a1535c1fd23998455bb9b502bd92616810ef&amp;dn=Liona+Levi+-+Lovely+Liona+-+HDLove&amp;tr=udp%3A%2F%2Ftracker.openbittorrent.com%3A80&amp;tr=udp%3A%2F%2Fopen.demonii.com%3A1337&amp;tr=udp%3A%2F%2Ftracker.coppersurfer.tk%3A6969&amp;tr=udp%3A%2F%2Fexodus.desync.com%3A6969","seeders":0,"leechers":0,"uploader":"athklym","files":-1,"time":1411773052,"description":" &lt;a href=&quot;http://bayimg.com/CaAHeAagK&quot; rel=&quot;nofollow&quot; target=&quot;_NEW&quot;&gt;http://bayimg.com/CaAHeAagK&lt;/a&gt;\nLovely_Liona_HDLove.mp4\nFormat                                   : MPEG-4\nFormat profile                           : Base Media\nCodec ID                                 : isom\nFile size                                : 105 MiB\nDuration                                 : 28mn 49s\nOverall bit rate mode                    : Variable\nOverall bit rate                         : 509 Kbps\nEncoded date                             : UTC 2014-09-24 04:19:36\nTagged date                              : UTC 2014-09-24 04:19:36\nWriting application                      : vlc 2.1.5 stream output\nComment                                  : QuickTime 6.0 or greater\n\nVideo\nID                                       : 2\nFormat                                   : AVC\nFormat/Info                              : Advanced Video Codec\nFormat profile                           : &lt;a class=&quot;__cf_email__&quot; href=&quot;/cdn-cgi/l/email-protection&quot; data-cfemail=&quot;3e765759567e720d100e&quot;&gt;[email&amp;#160;protected]&lt;/a&gt;&lt;script data-cfhash='f9e31' type=&quot;text/javascript&quot;&gt;\n/* &lt;![CDATA[ */!function(){try{var t=&quot;currentScript&quot;in document?document.currentScript:function(){for(var t=document.getElementsByTagName(&quot;script&quot;),e=t.length;e--;)if(t[e].getAttribute(&quot;data-cfhash&quot;))return t[e]}();if(t&amp;&amp;t.previousSibling){var e,r,n,i,c=t.previousSibling,a=c.getAttribute(&quot;data-cfemail&quot;);if(a){for(e=&quot;&quot;,r=parseInt(a.substr(0,2),16),n=2;a.length-n;n+=2)i=parseInt(a.substr(n,2),16)^r,e+=String.fromCharCode(i);e=document.createTextNode(e),c.parentNode.replaceChild(e,c)}t.parentNode.removeChild(t);}}catch(u){}}()/* ]]&gt; */&lt;/script&gt;\nFormat settings, CABAC                   : Yes\nFormat settings, ReFrames                : 4 frames\nCodec ID                                 : avc1\nCodec ID/Info                            : Advanced Video Coding\nDuration                                 : 28mn 49s\nSource duration                          : 28mn 49s\nBit rate                                 : 470 Kbps\nWidth                                    : 768 pixels\nHeight                                   : 432 pixels\nDisplay aspect ratio                     : 16:9\nFrame rate mode                          : Constant\nFrame rate                               : 30.000 fps\nColor space                              : YUV\nChroma subsampling                       : 4:2:0\nBit depth                                : 8 bits\nScan type                                : Progressive\nBits/(Pixel*Frame)                       : 0.047\nStream size                              : 97.0 MiB (92%)\nSource stream size                       : 97.0 MiB (92%)\nLanguage                                 : English\nEncoded date                             : UTC 2014-09-24 04:19:36\nTagged date                              : UTC 2014-09-24 04:19:36\nmdhd_Duration                            : 1729400\n\nAudio\nID                                       : 1\nFormat                                   : AAC\nFormat/Info                              : Advanced Audio Codec\nFormat profile                           : LC\nCodec ID                                 : 40\nDuration                                 : 28mn 49s\nSource duration                          : 28mn 49s\nBit rate mode                            : Variable\nBit rate                                 : 32.0 Kbps\nMaximum bit rate                         : 49.0 Kbps\nChannel(s)                               : 1 channel\nChannel positions                        : Front: C\nSampling rate                            : 32.0 KHz\nCompression mode                         : Lossy\nStream size                              : 6.60 MiB (6%)\nSource stream size                       : 6.60 MiB (6%)\nLanguage                                 : English\nEncoded date                             : UTC 2014-09-24 04:19:36\nTagged date                              : UTC 2014-09-24 04:19:36\nmdhd_Duration                            : 1729344\n\n","torrent":{"xt":"urn:btih:b6d4a1535c1fd23998455bb9b502bd92616810ef","amp;dn":"Liona+Levi+-+Lovely+Liona+-+HDLove","amp;tr":["udp%3A%2F%2Ftracker.openbittorrent.com%3A80","udp%3A%2F%2Fopen.demonii.com%3A1337","udp%3A%2F%2Ftracker.coppersurfer.tk%3A6969","udp%3A%2F%2Fexodus.desync.com%3A6969"],"infoHash":"b6d4a1535c1fd23998455bb9b502bd92616810ef","infoHashBuffer":{"type":"Buffer","data":[182,212,161,83,92,31,210,57,152,69,91,185,181,2,189,146,97,104,16,239]},"announce":[],"urlList":[]}}